<?xml version="1.0" standalone="no"?>
<!DOCTYPE svg PUBLIC "-//W3C//DTD SVG 20010904//EN"
 "http://www.w3.org/TR/2001/REC-SVG-20010904/DTD/svg10.dtd">
<svg version="1.0" xmlns="http://www.w3.org/2000/svg"
 width="120px" height="61px" viewBox="0 0 182.000000 61.000000"
 preserveAspectRatio="xMidYMid meet">

<g transform="translate(0.000000,61.000000) scale(0.100000,-0.100000)"
fill="#000000" stroke="none">
<path d="M650 563 c-1 -54 -21 -350 -25 -371 -5 -23 -4 -25 6 -10 12 15 15 15
37 0 35 -23 90 -6 119 37 38 57 26 161 -18 161 -22 0 -51 -23 -81 -63 l-30
-42 5 45 c6 46 20 224 19 237 -1 11 -32 16 -32 6z m124 -229 c27 -71 -20 -155
-79 -140 -43 11 -39 57 11 123 27 35 58 43 68 17z"/>
<path d="M175 491 c-22 -5 -30 -9 -17 -10 22 -1 22 -3 22 -152 0 -116 3 -150
13 -147 13 5 23 96 26 226 l1 72 30 0 c37 0 70 -31 70 -65 0 -31 -41 -75 -70
-75 -21 0 -21 -1 6 -47 63 -110 94 -134 144 -114 l25 10 -26 0 c-28 1 -49 21
-97 93 -36 53 -38 58 -18 58 25 0 66 43 72 75 9 50 -21 78 -87 81 -30 1 -72
-1 -94 -5z"/>
<path d="M1365 478 c-2 -7 -6 -34 -10 -60 l-6 -48 -45 0 c-41 0 -44 2 -40 23
16 80 16 88 -2 85 -12 -2 -19 -16 -23 -51 -6 -53 -23 -71 -50 -54 -26 16 -64
-14 -83 -65 l-16 -43 4 53 c4 60 -3 67 -49 53 -25 -8 -26 -9 -7 -10 21 -1 22
-5 22 -92 0 -107 15 -115 41 -25 20 66 45 99 71 93 10 -3 21 -1 24 4 3 5 12 9
20 9 11 0 14 -17 14 -79 0 -90 11 -107 59 -96 42 9 46 20 8 20 l-32 0 -3 78
-3 77 46 0 46 0 -7 -65 c-5 -52 -3 -69 11 -91 14 -22 22 -25 48 -20 41 8 56
24 17 18 -25 -4 -31 0 -40 24 -6 16 -8 50 -4 81 6 50 8 53 35 53 15 0 31 5 34
10 4 6 -9 10 -30 10 l-37 0 7 43 c3 23 9 50 11 60 6 20 -24 25 -31 5z"/>
<path d="M454 346 c-29 -29 -34 -41 -34 -80 0 -106 106 -130 155 -36 23 45 19
97 -10 125 -34 35 -70 32 -111 -9z m80 -2 c24 -23 30 -61 17 -104 -29 -97
-121 -32 -96 67 13 53 47 69 79 37z"/>
<path d="M894 346 c-30 -30 -34 -40 -34 -84 0 -43 4 -54 26 -71 36 -28 67 -26
101 5 l28 26 -27 -16 c-36 -21 -54 -20 -78 4 -25 25 -26 67 -2 73 16 4 16 5 0
6 -22 1 -23 20 -2 49 20 30 58 26 62 -6 2 -15 -4 -25 -20 -32 -21 -9 -20 -10
7 -4 16 3 36 10 42 16 19 16 16 46 -6 58 -34 18 -62 11 -97 -24z"/>
<path d="M1470 374 c0 -4 14 -50 31 -102 16 -53 28 -106 25 -117 -10 -38 -46
-75 -72 -75 -19 0 -25 -5 -22 -17 4 -24 36 -28 58 -8 10 9 40 67 65 129 26 61
56 128 68 148 21 38 17 62 -5 40 -7 -7 -24 -43 -39 -80 -27 -66 -27 -67 -38
-39 -6 16 -11 32 -11 37 0 24 -34 90 -46 90 -8 0 -14 -3 -14 -6z"/>
</g>
</svg>
